<?xml version="1.0" encoding="iso-8859-1"?>
<!-- Generator: Adobe Illustrator 19.0.0, SVG Export Plug-In . SVG Version: 6.00 Build 0)  -->
<svg xmlns="http://www.w3.org/2000/svg" xmlns:xlink="http://www.w3.org/1999/xlink" version="1.1" id="Layer_1" x="0px" y="0px" viewBox="0 0 512 512" style="enable-background:new 0 0 512 512;" xml:space="preserve">
<circle style="fill:#FF3D62;" cx="255.996" cy="256" r="255.996"/>
<path style="fill:#C2001B;" d="M512,256.004c0-0.035-0.001-0.067-0.001-0.101l-61.483-61.484H183.407l-43.107-43.801H82.087  c-0.694-0.433-1.405-0.842-2.146-1.201c-3.736-7.699-11.617-13.012-20.749-13.012c-12.738,0-23.064,10.327-23.064,23.065  c0,9.137,5.314,17.033,13.02,20.767l98.564,99.943l20.285,85.69l9.241,42.572l24.302,21.445c-1.166,3.298-1.807,6.842-1.807,10.539  c0,11.477,6.118,21.525,15.27,27.061c2.652,4.383,6.339,8.071,10.723,10.723c2.652,4.383,6.339,8.071,10.723,10.723  c2.652,4.383,6.339,8.071,10.723,10.723c2.652,4.383,6.339,8.071,10.723,10.723c0.327,0.541,0.671,1.07,1.029,1.589  C398.958,510.398,512,396.412,512,256.004z"/>
<polygon style="fill:#FFFFFF;" points="409.93,365.869 450.515,194.419 150.67,194.419 140.302,150.617 71.59,150.617   71.59,168.274 121.22,168.274 167.996,365.869 177.237,408.441 398.715,408.441 398.715,395.898 193.561,395.898 186.443,365.869   191.257,365.869 "/>
<polygon style="fill:#E1E1E3;" points="409.93,365.869 450.515,194.419 288.962,194.419 288.962,365.869 "/>
<g>
	<circle style="fill:#00E8F2;" cx="231.337" cy="440.422" r="31.608"/>
	<circle style="fill:#00E8F2;" cx="59.192" cy="159.474" r="23.061"/>
</g>
<circle style="fill:#00D9E0;" cx="346.588" cy="440.422" r="31.608"/>
<polygon style="fill:#00A6FF;" points="159.117,215.991 185.993,344.296 391.103,344.296 417.978,215.991 "/>
<rect x="288.962" y="395.899" style="fill:#E1E1E3;" width="109.755" height="12.539"/>
<polygon style="fill:#0088FF;" points="417.978,215.991 288.962,215.991 288.962,344.296 391.103,344.296 "/>
<g>
</g>
<g>
</g>
<g>
</g>
<g>
</g>
<g>
</g>
<g>
</g>
<g>
</g>
<g>
</g>
<g>
</g>
<g>
</g>
<g>
</g>
<g>
</g>
<g>
</g>
<g>
</g>
<g>
</g>
</svg>
